<svg width="388" height="400" viewBox="0 0 388 400" fill="none" xmlns="http://www.w3.org/2000/svg">
<path d="M383.5 142.5C383.5 112 362.805 77.942 335.195 52.6153C307.585 27.2887 273.416 10.2269 236.581 3.37399C199.747 -3.47891 161.728 0.152696 126.856 13.855C91.985 27.5573 61.6638 50.7793 39.3477 80.8749C17.0315 110.971 3.61778 146.73 0.634927 184.077C-2.34793 221.425 5.22003 258.86 22.4765 292.116C39.7329 325.372 65.9839 353.113 98.2383 372.176C130.493 391.239 167.453 400.859 204.909 399.94L203.269 333.145C178.326 333.757 153.713 327.351 132.234 314.656C110.755 301.961 93.2742 283.489 81.7827 261.342C70.2912 239.196 65.2515 214.268 67.2378 189.397C69.2242 164.526 78.1567 140.713 93.0176 120.672C107.879 100.63 128.07 85.1661 151.292 76.0414C174.513 66.9167 199.831 64.4983 224.36 69.0618C248.89 73.6253 271.644 84.9872 290.03 101.853C308.416 118.718 312.341 128.455 319 152.5L383.5 142.5Z" fill="#F97316"/>
<path d="M168 238C168 232.477 172.477 228 178 228H378C383.523 228 388 232.477 388 238V278C388 283.523 383.523 288 378 288H178C172.477 288 168 283.523 168 278V238Z" fill="#C2410C"/>
<path d="M152 134.8C152 128.443 152 125.264 153.393 122.91C154.25 121.46 155.46 120.25 156.91 119.393C159.264 118 162.443 118 168.8 118H365.751C371.919 118 375.003 118 377.32 119.335C378.749 120.158 379.951 121.322 380.821 122.722C382.233 124.993 382.336 128.076 382.541 134.24L383.421 160.64C383.64 167.188 383.749 170.462 382.378 172.9C381.535 174.4 380.32 175.657 378.849 176.549C376.458 178 373.182 178 366.631 178H168.8C162.443 178 159.264 178 156.91 176.607C155.46 175.75 154.25 174.54 153.393 173.09C152 170.736 152 167.557 152 161.2V134.8Z" fill="#F97316"/>
<path d="M166 400C160.477 400 156 395.523 156 390V238C156 232.477 160.477 228 166 228H206C211.523 228 216 232.477 216 238V390C216 395.523 211.523 400 206 400H166Z" fill="#C2410C"/>
</svg>
